#!OML:ASF F:\VICON\USERDATA\INSTALL\rory3\rory3.ASF
:FULLY-SPECIFIED
:DEGREES
10
root -1.6435799999999996 16.9713 -25.874300000000062 4.720150000000001 -3.2784100000000067 -3.865739999999999
lfemur -42.077200000000026 12.861200000000018 -13.780999999999992
ltibia 111.62599999999996
lfoot 9.50148999999999 -16.779799999999998
ltoes 0.2812579999999816
rfemur -13.495800000000001 8.142729999999995 31.948499999999992
rtibia 53.559100000000015
rfoot -24.91439999999995 -14.34590000000001
rtoes -17.77320000000001
lowerback 1.0 0.5291500000000008 2.6792000000000002
upperback -0.28709999999999986 1.49636 2.5664200000000017
thorax -9.934450000000002 0.650629 0.8909789999999995
lowerneck -16.922000000000004 -3.4632999999999985 -2.808470000000002
upperneck 14.8631 -4.463429999999997 2.421240000000001
head 7.47077 -2.0612399999999997 0.7470959999999999
lclavicle -6.659289999999994e-15 -1.908329999999998e-14
lhumerus -57.9576 -9.71583 97.4204
lradius 88.18049999999998
lwrist 35.4491
lhand -30.1403 -0.4516869999999944
lfingers 7.12502
lthumb -3.452920000000001 29.500100000000007
rclavicle -6.659289999999994e-15 -1.908329999999998e-14
rhumerus -32.97089999999998 16.55730000000001 -96.2972
rradius 109.374
rwrist -20.617
rhand -19.4648 1.0
rfingers 7.12502
rthumb 6.856489999999999 9.84403
11
root -1.6238700000000015 17.0699 -25.379699999999964 4.724119999999999 -3.5473100000000044 -3.9645199999999914
lfemur -44.00909999999999 12.94149999999997 -14.304899999999979
ltibia 109.92199999999998
lfoot 9.343060000000001 -16.468799999999998
ltoes 4.410449999999988
rfemur -10.978999999999989 8.401610000000003 32.0437
rtibia 52.15030000000002
rfoot -23.748700000000024 -13.803300000000004
rtoes -18.250100000000003
lowerback 1.0 0.887715 3.0757900000000027
upperback -0.46453800000000006 2.053339999999999 2.362140000000003
thorax -10.284199999999998 0.8829940000000003 0.29854400000000014
lowerneck -16.710300000000004 -3.7208000000000014 -2.723089999999999
upperneck 14.8532 -4.862299999999998 2.536320000000002
head 7.44284 -2.2376900000000006 0.7283220000000001
lclavicle 6.957460000000015e-16 -3.140799999999998e-14
lhumerus -59.2913 -9.975409999999993 97.3854
lradius 88.96679999999998
lwrist 35.8698
lhand -29.8549 0.34504199999999763
lfingers 7.12502
lthumb -3.17729 30.3011
rclavicle 6.957460000000015e-16 -3.140799999999998e-14
rhumerus -31.6728 16.43779999999999 -96.2387
rradius 111.39500000000001
rwrist -20.936
rhand -19.2624 1.0
rfingers 7.12502
rthumb 7.05184 9.80436
12
root -1.5904599999999993 17.1502 -24.868500000000033 4.8902 -3.929810000000011 -3.9592200000000006
lfemur -45.77269999999997 13.016899999999975 -15.051200000000007
ltibia 107.90399999999991
lfoot 7.364589999999997 -15.757000000000001
ltoes 1.4870299999999776
rfemur -8.722900000000006 8.736409999999998 31.917599999999993
rtibia 50.757499999999986
rfoot -22.003300000000053 -12.947199999999992
rtoes -19.28330000000003
lowerback 1.0 1.3652600000000001 3.4931100000000046
upperback -0.6217280000000003 2.741149999999997 2.0707400000000025
thorax -10.332999999999998 1.1757100000000005 -0.42900099999999936
lowerneck -16.73849999999999 -4.009109999999999 -2.44509
upperneck 15.0325 -5.324010000000001 2.511289999999999
head 7.5108 -2.4424300000000003 0.6201539999999999
lclavicle 2.435109999999997e-14 9.144089999999994e-15
lhumerus -60.5898 -10.399799999999992 97.3379
lradius 89.6829
lwrist 36.1881
lhand -29.41 1.5207799999999962
lfingers 7.12502
lthumb -2.7477199999999993 31.482799999999997
rclavicle 2.435109999999997e-14 9.144089999999994e-15
rhumerus -30.522600000000025 16.016400000000008 -96.1144
rradius 113.35000000000001
rwrist -21.2407
rhand -19.5702 1.0
rfingers 7.12502
rthumb 6.754739999999999 11.4821
13
root -1.5500100000000003 17.2282 -24.336799999999975 5.166919999999999 -3.8404900000000093 -3.8253099999999907
lfemur -47.40919999999993 12.396899999999992 -15.946200000000005
ltibia 105.52999999999997
lfoot 2.84781 -14.558100000000007
ltoes -12.1473
rfemur -6.56890000000001 8.697899999999997 31.626000000000012
rtibia 49.19689999999997
rfoot -19.837999999999983 -12.153099999999997
rtoes -20.484400000000036
lowerback 1.0 1.674549999999999 3.865259999999995
upperback -0.5805999999999999 3.161429999999998 1.8402799999999995
thorax -9.829999999999998 1.3613700000000017 -0.9695029999999991
lowerneck -17.266299999999998 -4.28878 -2.06373
upperneck 15.236899999999999 -5.74062 2.2159799999999974
head 7.65865 -2.63952 0.40134600000000026
lclavicle -1.580340000000002e-14 -1.3119799999999987e-14
lhumerus -61.4052 -10.519899999999993 97.36670000000001
lradius 90.1267
lwrist 36.0149
lhand -29.6674 2.0799100000000026
lfingers 7.12502
lthumb -2.996210000000001 32.0386
rclavicle -1.580340000000002e-14 -1.3119799999999987e-14
rhumerus -29.21490000000002 15.724799999999995 -95.7251
rradius 115.172
rwrist -21.889500000000005
rhand -19.4553 1.0
rfingers 7.12502
rthumb 6.865640000000001 14.658099999999992
14
root -1.51439 17.327 -23.801399999999937 5.329169999999999 -3.523509999999994 -3.6159000000000074
lfemur -48.57460000000006 11.39089999999998 -16.793799999999997
ltibia 102.68500000000006
lfoot 4.279180000000003 -14.12100000000001
ltoes -7.267889999999994
rfemur -4.368399999999985 8.423609999999998 31.2348
rtibia 47.546700000000016
rfoot -17.32080000000005 -11.167600000000007
rtoes -21.14169999999999
lowerback 1.0 1.86485 4.047579999999999
upperback -0.6477779999999997 3.4190000000000005 1.7212399999999992
thorax -9.65268 1.4761199999999994 -1.2480699999999987
lowerneck -17.6267 -4.55601 -1.95245
upperneck 15.410000000000004 -6.08047 1.9457700000000027
head 7.77243 -2.81557 0.24477900000000036
lclavicle -3.757030000000001e-14 -1.3914900000000013e-14
lhumerus -62.38559999999998 -10.155399999999998 97.44200000000001
lradius 90.56239999999998
lwrist 35.5575
lhand -29.79 1.8462499999999946
lfingers 7.12502
lthumb -3.114630000000001 31.803299999999997
rclavicle -3.757030000000001e-14 -1.3914900000000013e-14
rhumerus -28.169299999999993 15.664300000000003 -95.2566
rradius 117.055
rwrist -22.555399999999995
rhand -19.6561 1.0
rfingers 7.12502
rthumb 6.671809999999999 16.387499999999996
15
root -1.4814399999999996 17.4423 -23.266900000000035 5.346520000000002 -3.218899999999999 -3.482789999999996
lfemur -49.387999999999934 10.405300000000015 -17.4391
ltibia 99.39789999999996
lfoot 2.48284 -12.973599999999994
ltoes -14.332499999999996
rfemur -2.1072899999999812 8.094899999999992 30.866500000000006
rtibia 45.67949999999995
rfoot -14.26179999999998 -9.992300000000002
rtoes -21.73379999999997
lowerback 1.0 2.0280699999999983 4.3147300000000035
upperback -0.6083350000000003 3.6638299999999986 1.5872400000000007
thorax -9.49924 1.5806100000000005 -1.5933000000000042
lowerneck -18.4119 -4.825389999999999 -1.88543
upperneck 15.757099999999994 -6.43777 1.8211200000000027
head 8.02344 -2.98131 0.12696799999999908
lclavicle -1.0237400000000011e-14 -1.5505200000000017e-14
lhumerus -63.06900000000001 -9.76318 97.26649999999998
lradius 90.88760000000002
lwrist 35.3826
lhand -29.3286 1.1954999999999947
lfingers 7.12502
lthumb -2.669060000000001 31.158499999999997
rclavicle -1.0237400000000011e-14 -1.5505200000000017e-14
rhumerus -26.86080000000002 15.683399999999995 -94.7349
rradius 118.77800000000002
rwrist -23.315600000000003
rhand -19.960800000000003 1.0
rfingers 7.12502
rthumb 6.377659999999998 16.927999999999994
16
root -1.4568199999999996 17.5615 -22.745000000000026 5.062370000000001 -2.210170000000003 -3.2164300000000035
lfemur -49.76339999999999 8.709329999999992 -17.994699999999995
ltibia 95.76050000000004
lfoot 2.395039999999999 -12.2269
ltoes -13.608099999999995
rfemur 0.3764909999999997 7.180040000000007 30.523099999999996
rtibia 43.590400000000045
rfoot -10.66680000000003 -8.88258
rtoes -22.589800000000057
lowerback 1.0 1.7127299999999992 4.304949999999999
upperback -0.8834580000000005 3.26685 1.7273199999999984
thorax -9.782980000000002 1.3856100000000013 -1.3460499999999984
lowerneck -16.269799999999996 -4.854439999999999 -2.59605
upperneck 14.952 -6.37394 2.1116900000000025
head 7.42073 -2.9955699999999994 0.40363800000000005
lclavicle -2.5643199999999987e-14 -2.9420100000000003e-14
lhumerus -64.7171 -8.104459999999996 97.122
lradius 91.392
lwrist 35.1209
lhand -28.9577 1.7084099999999949
lfingers 7.12502
lthumb -2.31082 31.675600000000003
rclavicle -2.5643199999999987e-14 -2.9420100000000003e-14
rhumerus -26.623700000000014 16.39269999999999 -94.3572
rradius 119.84599999999999
rwrist -23.958500000000008
rhand -19.6147 1.0
rfingers 7.12502
rthumb 6.711799999999999 19.553200000000018
